# xmcd
#
# Track frame offsets:
#	150
#	26368
#	43046
#	82616
#	105669
#	133262
#	176329
#	209182
#	239121
#	242500
#	250044
#	272788
#	292363
#	310793
#
# Disc length: 4676 seconds
#
# Revision: 1
# Processed by: cddbd v1.5.2PL0 Copyright (c) Steve Scherf et al.
# Submitted via: audiograbber 1.83.01
#
DISCID=ca12420e
DTITLE=Grateful Dead - 70-11-06A Capitol Theatre, Port Chester NY
DYEAR=1900
DGENRE=
TTITLE0=Casey Jones
TTITLE1=Me and My Uncle
TTITLE2=King Bee
TTITLE3=China Cat Sunflower
TTITLE4=I know You Rider
TTITLE5=Truckin'
TTITLE6=Candyman
TTITLE7=Sugar Magnolia
TTITLE8=Drums
TTITLE9=Good Lovin
TTITLE10=Drums
TTITLE11=The Main Ten
TTITLE12=Drums
TTITLE13=Good Lovin'
EXTD=
EXTT0=
EXTT1=
EXTT2=
EXTT3=
EXTT4=
EXTT5=
EXTT6=
EXTT7=
EXTT8=
EXTT9=
EXTT10=
EXTT11=
EXTT12=
EXTT13=
PLAYORDER=
